<svg height="782" width="720" xmlns="http://www.w3.org/2000/svg">
<rect height="782" fill="#555" width="720"></rect>
<text fill="#7f7" font-family="Courier New" font-size="12" xml:space="preserve">
<tspan x="10" y="26">26 megabytes installed</tspan>
<tspan x="10" y="42"></tspan>
<tspan x="10" y="58">node_modules</tspan>
<tspan x="10" y="74">├── UNMET PEER DEPENDENCY hapi@&gt;=11.x.x</tspan>
<tspan x="10" y="90">├── UNMET PEER DEPENDENCY inert@&gt;=4.x.x</tspan>
<tspan x="10" y="106">├─┬ tv@6.1.0 </tspan>
<tspan x="10" y="122">│ ├─┬ backbone@1.3.3 </tspan>
<tspan x="10" y="138">│ │ └── underscore@1.8.3 </tspan>
<tspan x="10" y="154">│ ├── bootstrap@3.3.7 </tspan>
<tspan x="10" y="170">│ ├── chance@1.0.6 </tspan>
<tspan x="10" y="186">│ ├─┬ handlebars@4.0.6 </tspan>
<tspan x="10" y="202">│ │ ├── async@1.5.2 </tspan>
<tspan x="10" y="218">│ │ ├─┬ optimist@0.6.1 </tspan>
<tspan x="10" y="234">│ │ │ ├── minimist@0.0.10 </tspan>
<tspan x="10" y="250">│ │ │ └── wordwrap@0.0.3 </tspan>
<tspan x="10" y="266">│ │ ├─┬ source-map@0.4.4 </tspan>
<tspan x="10" y="282">│ │ │ └── amdefine@1.0.1 </tspan>
<tspan x="10" y="298">│ │ └─┬ uglify-js@2.8.22 </tspan>
<tspan x="10" y="314">│ │   ├── source-map@0.5.6 </tspan>
<tspan x="10" y="330">│ │   ├── uglify-to-browserify@1.0.2 </tspan>
<tspan x="10" y="346">│ │   └─┬ yargs@3.10.0 </tspan>
<tspan x="10" y="362">│ │     ├── camelcase@1.2.1 </tspan>
<tspan x="10" y="378">│ │     ├─┬ cliui@2.1.0 </tspan>
<tspan x="10" y="394">│ │     │ ├─┬ center-align@0.1.3 </tspan>
<tspan x="10" y="410">│ │     │ │ ├─┬ align-text@0.1.4 </tspan>
<tspan x="10" y="426">│ │     │ │ │ ├─┬ kind-of@3.1.0 </tspan>
<tspan x="10" y="442">│ │     │ │ │ │ └── is-buffer@1.1.5 </tspan>
<tspan x="10" y="458">│ │     │ │ │ ├── longest@1.0.1 </tspan>
<tspan x="10" y="474">│ │     │ │ │ └── repeat-string@1.6.1 </tspan>
<tspan x="10" y="490">│ │     │ │ └── lazy-cache@1.0.4 </tspan>
<tspan x="10" y="506">│ │     │ ├── right-align@0.1.3 </tspan>
<tspan x="10" y="522">│ │     │ └── wordwrap@0.0.2 </tspan>
<tspan x="10" y="538">│ │     ├── decamelize@1.2.0 </tspan>
<tspan x="10" y="554">│ │     └── window-size@0.1.0 </tspan>
<tspan x="10" y="570">│ ├─┬ hbsfy@2.7.0 </tspan>
<tspan x="10" y="586">│ │ ├── through@2.3.8 </tspan>
<tspan x="10" y="602">│ │ └── xtend@3.0.0 </tspan>
<tspan x="10" y="618">│ ├── hoek@4.1.1 </tspan>
<tspan x="10" y="634">│ ├── jquery@3.1.1 </tspan>
<tspan x="10" y="650">│ ├── json-markup@1.1.0 </tspan>
<tspan x="10" y="666">│ ├── lodash@4.17.4 </tspan>
<tspan x="10" y="682">│ ├── moment@2.17.1 </tspan>
<tspan x="10" y="698">│ ├─┬ ws@1.1.4 </tspan>
<tspan x="10" y="714">│ │ ├── options@0.0.6 </tspan>
<tspan x="10" y="730">│ │ └── ultron@1.0.2 </tspan>
<tspan x="10" y="746">│ └── zeroclipboard@2.3.0 </tspan>
<tspan x="10" y="762">└── UNMET PEER DEPENDENCY vision@&gt;=4.x.x</tspan>
</text>
</svg>
